<svg xmlns="http://www.w3.org/2000/svg" viewBox="0 0 1600 900" role="img" aria-label="Thumb mapa de ecopontos">
  <defs>
    <linearGradient id="c" x1="0%" y1="0%" x2="100%" y2="100%">
      <stop offset="0%" stop-color="#22d3ee"/>
      <stop offset="100%" stop-color="#2563eb"/>
    </linearGradient>
  </defs>
  <rect width="1600" height="900" rx="48" fill="url(#c)"/>
  <g fill="none" stroke="rgba(15,23,42,0.18)" stroke-width="8">
    <circle cx="320" cy="280" r="140"/>
    <circle cx="800" cy="520" r="220"/>
    <circle cx="1320" cy="360" r="180"/>
    <path d="M240 620c120-120 360-240 560-240s440 120 560 240"/>
  </g>
  <g fill="#f8fafc">
    <text x="160" y="320" font-family="Inter, 'Segoe UI', sans-serif" font-size="88" font-weight="800" letter-spacing="-0.04em">
      Mapa fotográfico dos ecopontos
    </text>
    <text x="160" y="410" font-family="Inter, 'Segoe UI', sans-serif" font-size="44" font-weight="600" opacity=".88">
      Visualize antes de entregar seus resíduos
    </text>
  </g>
  <g fill="#0f172a">
    <path d="M800 300c-83 0-150 67-150 150 0 110 150 260 150 260s150-150 150-260c0-83-67-150-150-150zm0 210a60 60 0 1 1 0-120 60 60 0 0 1 0 120z" fill="#0f172a" opacity=".85"/>
    <circle cx="800" cy="450" r="44" fill="#f8fafc"/>
  </g>
</svg>
