<svg xmlns="http://www.w3.org/2000/svg" viewBox="0 0 1200 800" role="img" aria-label="Cooperfoz Itajaí">
  <defs>
    <linearGradient id="bg" x1="0%" y1="0%" x2="100%" y2="100%">
      <stop offset="0%" stop-color="#0f172a"/>
      <stop offset="100%" stop-color="#1f2a40"/>
    </linearGradient>
    <linearGradient id="accent" x1="0%" y1="0%" x2="100%" y2="0%">
      <stop offset="0%" stop-color="#16a34a"/>
      <stop offset="100%" stop-color="#22d3ee"/>
    </linearGradient>
  </defs>
  <rect width="1200" height="800" rx="48" fill="url(#bg)"/>
  <g opacity=".35">
    <circle cx="220" cy="220" r="160" fill="#22d3ee"/>
    <circle cx="1020" cy="620" r="230" fill="#16a34a"/>
  </g>
  <g fill="none" stroke="url(#accent)" stroke-width="18" stroke-linecap="round" stroke-linejoin="round" opacity=".5">
    <path d="M180 520c120-140 280-220 460-220s340 80 460 220"/>
    <path opacity=".6" d="M220 600c120-120 280-180 420-180s300 60 420 180"/>
  </g>
  <g fill="#f8fafc">
    <text x="140" y="500" font-family="Inter, 'Segoe UI', sans-serif" font-size="96" font-weight="800" letter-spacing="-0.04em">
      COOPERFOZ ITAJAÍ
    </text>
    <text x="140" y="560" font-family="Inter, 'Segoe UI', sans-serif" font-size="42" font-weight="600" opacity=".85">
      Economia solidária que transforma resíduos em renda e dignidade.
    </text>
  </g>
  <g transform="translate(140 250)">
    <path d="M0 160c0-88 72-160 160-160s160 72 160 160c0 110-160 240-160 240S0 270 0 160z" fill="#16a34a" opacity=".9"/>
    <circle cx="160" cy="160" r="84" fill="#0f172a"/>
    <path d="M116 160h88l-44-72z" fill="#22d3ee"/>
  </g>
</svg>
